<svg width="261" height="63" viewBox="0 0 261 63" fill="none" xmlns="http://www.w3.org/2000/svg">
<path d="M3.848 9.912H14.984V13.336H3.848V9.912ZM4.168 19.512H16.808V23H0.00800014V0.599998H16.36V4.088H4.168V19.512ZM19.5725 15.768V12.44H28.3725V15.768H19.5725ZM43.6573 23.32C41.9506 23.32 40.3613 23.0427 38.8893 22.488C37.4386 21.912 36.1693 21.112 35.0813 20.088C34.0146 19.0427 33.1826 17.816 32.5853 16.408C31.9879 15 31.6893 13.464 31.6893 11.8C31.6893 10.136 31.9879 8.6 32.5853 7.192C33.1826 5.784 34.0253 4.568 35.1133 3.544C36.2013 2.49867 37.4706 1.69867 38.9213 1.144C40.3719 0.567999 41.9613 0.279999 43.6893 0.279999C45.5239 0.279999 47.1986 0.599999 48.7133 1.24C50.2279 1.85867 51.5079 2.78667 52.5533 4.024L49.8653 6.552C49.0546 5.67733 48.1479 5.02667 47.1453 4.6C46.1426 4.152 45.0546 3.928 43.8813 3.928C42.7079 3.928 41.6306 4.12 40.6493 4.504C39.6893 4.888 38.8466 5.432 38.1213 6.136C37.4173 6.84 36.8626 7.672 36.4573 8.632C36.0733 9.592 35.8813 10.648 35.8813 11.8C35.8813 12.952 36.0733 14.008 36.4573 14.968C36.8626 15.928 37.4173 16.76 38.1213 17.464C38.8466 18.168 39.6893 18.712 40.6493 19.096C41.6306 19.48 42.7079 19.672 43.8813 19.672C45.0546 19.672 46.1426 19.4587 47.1453 19.032C48.1479 18.584 49.0546 17.912 49.8653 17.016L52.5533 19.576C51.5079 20.792 50.2279 21.72 48.7133 22.36C47.1986 23 45.5133 23.32 43.6573 23.32ZM60.3793 9.912H71.5153V13.336H60.3793V9.912ZM60.6993 19.512H73.3393V23H56.5393V0.599998H72.8913V4.088H60.6993V19.512ZM77.9768 23V0.599998H82.1368V19.48H93.8488V23H77.9768ZM97.133 23V0.599998H101.293V19.48H113.005V23H97.133ZM0.00800014 63V40.6H4.168V63H0.00800014ZM10.2268 63V40.6H14.3868V63H10.2268ZM24.9895 63V44.12H17.5655V40.6H36.5735V44.12H29.1495V63H24.9895ZM64.2833 40.6H68.4433V63H64.2833V40.6ZM52.6993 63H48.5393V40.6H52.6993V63ZM64.6033 53.4H52.3473V49.848H64.6033V53.4ZM79.9495 63V54.136L80.8775 56.696L71.1495 40.6H75.5975L83.4055 53.56H80.9095L88.7815 40.6H92.8775L83.1495 56.696L84.1095 54.136V63H79.9495ZM95.3205 63V40.6H105.113C107.545 40.6 109.678 41.0693 111.513 42.008C113.347 42.9467 114.777 44.248 115.801 45.912C116.825 47.576 117.337 49.5387 117.337 51.8C117.337 54.04 116.825 56.0027 115.801 57.688C114.777 59.352 113.347 60.6533 111.513 61.592C109.678 62.5307 107.545 63 105.113 63H95.3205ZM99.4805 59.48H104.921C106.606 59.48 108.057 59.16 109.273 58.52C110.51 57.88 111.459 56.984 112.121 55.832C112.803 54.68 113.145 53.336 113.145 51.8C113.145 50.2427 112.803 48.8987 112.121 47.768C111.459 46.616 110.51 45.72 109.273 45.08C108.057 44.44 106.606 44.12 104.921 44.12H99.4805V59.48ZM125.598 49.912H136.734V53.336H125.598V49.912ZM125.918 59.512H138.558V63H121.758V40.6H138.11V44.088H125.918V59.512ZM143.196 63V40.6H152.412C154.396 40.6 156.092 40.92 157.5 41.56C158.929 42.2 160.028 43.1173 160.796 44.312C161.564 45.5067 161.948 46.9253 161.948 48.568C161.948 50.2107 161.564 51.6293 160.796 52.824C160.028 53.9973 158.929 54.904 157.5 55.544C156.092 56.1627 154.396 56.472 152.412 56.472H145.5L147.356 54.584V63H143.196ZM157.852 63L152.188 54.872H156.635L162.332 63H157.852ZM147.356 55.032L145.5 53.048H152.22C154.054 53.048 155.43 52.6533 156.347 51.864C157.286 51.0747 157.756 49.976 157.756 48.568C157.756 47.1387 157.286 46.04 156.347 45.272C155.43 44.504 154.054 44.12 152.22 44.12H145.5L147.356 42.072V55.032ZM163.434 63L173.514 40.6H177.61L187.722 63H183.37L174.698 42.808H176.362L167.722 63H163.434ZM168.074 57.816L169.194 54.552H181.29L182.41 57.816H168.074ZM190.571 63V40.6H201.067C203.755 40.6 205.803 41.1333 207.211 42.2C208.619 43.2453 209.323 44.6533 209.323 46.424C209.323 47.6187 209.045 48.6427 208.491 49.496C207.936 50.328 207.189 50.9787 206.251 51.448C205.333 51.896 204.331 52.12 203.243 52.12L203.819 50.968C205.077 50.968 206.208 51.2027 207.211 51.672C208.213 52.12 209.003 52.7813 209.579 53.656C210.176 54.5307 210.475 55.6187 210.475 56.92C210.475 58.84 209.739 60.3333 208.267 61.4C206.795 62.4667 204.608 63 201.707 63H190.571ZM194.731 59.736H201.451C203.008 59.736 204.203 59.48 205.035 58.968C205.867 58.456 206.283 57.6347 206.283 56.504C206.283 55.3947 205.867 54.584 205.035 54.072C204.203 53.5387 203.008 53.272 201.451 53.272H194.411V50.04H200.619C202.069 50.04 203.179 49.784 203.947 49.272C204.736 48.76 205.131 47.992 205.131 46.968C205.131 45.9227 204.736 45.144 203.947 44.632C203.179 44.12 202.069 43.864 200.619 43.864H194.731V59.736ZM211.746 63L221.826 40.6H225.922L236.034 63H231.682L223.01 42.808H224.674L216.034 63H211.746ZM216.386 57.816L217.506 54.552H229.602L230.722 57.816H216.386ZM238.883 63V40.6H248.675C251.107 40.6 253.24 41.0693 255.075 42.008C256.91 42.9467 258.339 44.248 259.363 45.912C260.387 47.576 260.899 49.5387 260.899 51.8C260.899 54.04 260.387 56.0027 259.363 57.688C258.339 59.352 256.91 60.6533 255.075 61.592C253.24 62.5307 251.107 63 248.675 63H238.883ZM243.043 59.48H248.483C250.168 59.48 251.619 59.16 252.835 58.52C254.072 57.88 255.022 56.984 255.683 55.832C256.366 54.68 256.707 53.336 256.707 51.8C256.707 50.2427 256.366 48.8987 255.683 47.768C255.022 46.616 254.072 45.72 252.835 45.08C251.619 44.44 250.168 44.12 248.483 44.12H243.043V59.48Z" fill="white"/>
</svg>
